<?xml version="1.0" encoding="utf-8"?>
<!-- Generator: Adobe Illustrator 24.3.0, SVG Export Plug-In . SVG Version: 6.00 Build 0)  -->
<svg version="1.1" id="Layer_1" xmlns="http://www.w3.org/2000/svg" xmlns:xlink="http://www.w3.org/1999/xlink" x="0px" y="0px"
	 viewBox="0 0 321.2 266.2" style="enable-background:new 0 0 321.2 266.2;" xml:space="preserve">
<style type="text/css">
	.st0{fill:#004E26;}
</style>
<g>
	<path class="st0" d="M160.6,54.3c-43.5,0-78.8,35.3-78.8,78.8s35.3,78.8,78.8,78.8s78.8-35.3,78.8-78.8S204.1,54.3,160.6,54.3z
		 M97.4,173.7c-4.7-8.9-5.5-17.3-5.5-17.3s20.2,24.8,23.3,34.7C115.2,191,102.2,182.6,97.4,173.7z M231.1,152.2
		c-0.2,4-4.6,11.3-4.6,11.3c-12.2-7.5-21.8-45.2-21.8-45.2c-3.8-0.1-8-0.2-12.5-0.2c-1,0-1.5,1.1-0.8,1.8c0.1,0.1,0.3,0.3,0.4,0.4
		c5.4,5.1,14.6,23.8,16.4,30.1c1.7,6.3,11.2,22.9,11.2,22.9s-4.2,0.3-16.2-8c-11.9-8.3-21.3-39.6-21.4-43.4
		c-0.1-3.7-2.5-3.8-2.6-3.8c-3.7,0-7.6,0.1-11.5,0.1c-0.7,0-1.3,0.4-1.5,1.1c-0.6,2.2,2.4,4.8,4.4,7.1c2.3,2.6,5.8,6.8,7,10.6
		c1.3,4.1,5.9,14.2,10.9,21.2c4.9,7,10.5,22.4,10.5,22.4s-11.3-4.4-24.3-17.4c-12.9-12.9-20-34.4-20.8-38.7
		c-0.9-4.3-5.6-5.6-5.7-5.6c-4.8,0.3-9.5,0.6-14,1c-0.7,0.1-1,1-0.4,1.4c8.9,6.2,26.3,33.6,29.7,41.7c3.7,8.9,11.2,25.6,11.2,25.6
		s-13.7-4.8-24.5-15.4c-10.9-10.6-20.3-28.9-25.8-40.1c-5.2-10.8-13-10-13.6-10c-3.2,0.7-6,1.5-8.5,2.4c-0.8,0.3-0.9,1.3-0.2,1.8
		c4.9,3.3,19.9,14.4,27.9,31.8c9.6,21,17.9,35.1,22.1,38c0,0-23.7-4.5-41.6-27.3c-12.5-16-18.9-32-21.5-40.2
		c-1.2-3.8-1.4-7.8-0.4-11.7c2.8-10.9,11.2-34,34.2-47c0,0-3.9,23.1-23.3,43.3c-0.2,0.2,0,0.4,0.2,0.4c1.6-0.1,6.2-0.4,12.7-0.8h0
		c8.8-21.5,26.6-47.2,30-52c0.4-0.6,1.1-1.1,1.9-1.3c3.9-1,12.4-0.5,15.3-0.3c0.5,0,0.8,0.5,0.6,1c-0.8,1.6-2.8,5.5-5.7,12
		c-4,8.8-18.2,30.9-20.9,34.7c-2.8,3.9-1.7,5-1.7,5h0c1.3,0.6,11.1-0.4,13.6-0.4c0.5,0,1-0.4,1.1-0.9c5.7-25.1,24.9-44.8,28.7-48.5
		c0.4-0.4,1-0.7,1.6-0.6c3.2,0.2,7.7,1.7,9.3,2.3c0.4,0.1,0.5,0.5,0.5,0.9c-0.5,1.8-2.1,7.5-5.4,14.1c-4,8.1-15.1,24.1-17.6,27.7
		c-2.6,3.7-1.8,4.8-1.8,4.8l0,0c3.9,0,7.9,0,11.8,0l0,0c0,0,16.8-36.4,26-40.3c0.3-0.1,0.6-0.1,0.9,0.1c1.8,1.2,9,6.2,9.2,8.2
		c0.3,2.1-14.1,24.4-21.9,31.3c0.3,0.7,0.1,0.2,0.3,0.9c4,0.1,8,0.3,12,0.5l0,0c0,0,12.4-22.2,15.7-25.8c0.3-0.3,0.8-0.4,1.2,0
		c1.7,1.6,7.3,7,7.7,10.3c0.4,3.3-8.4,13.1-11.5,16.5c3,0.3,6,0.6,8.8,0.9c0.3,0,0.6-0.1,0.9-0.3c1.3-1.1,5.3-5,5.5-7.7
		c0,0,6.8,10.9,4.6,25.1c0,0-4.5-11.5-13-13.1c-0.1,0-0.3,0-0.4-0.1c-0.5,0-1,0-1.6-0.1C215.6,120.2,231.3,148.2,231.1,152.2z"/>
	<path class="st0" d="M160.6,60.4c40.1,0,72.7,32.6,72.7,72.7s-32.6,72.7-72.7,72.7s-72.7-32.6-72.7-72.7S120.5,60.4,160.6,60.4
		 M160.6,54.3c-43.5,0-78.8,35.3-78.8,78.8s35.3,78.8,78.8,78.8s78.8-35.3,78.8-78.8S204.1,54.3,160.6,54.3L160.6,54.3z"/>
</g>
</svg>
