<?xml version="1.0" encoding="utf-8"?>
<!-- Generator: Adobe Illustrator 24.3.0, SVG Export Plug-In . SVG Version: 6.00 Build 0)  -->
<svg version="1.1" id="Layer_1" xmlns="http://www.w3.org/2000/svg" xmlns:xlink="http://www.w3.org/1999/xlink" x="0px" y="0px"
	 viewBox="0 0 595.3 266.2" style="enable-background:new 0 0 595.3 266.2;" xml:space="preserve">
<style type="text/css">
	.st0{fill:#004E26;}
</style>
<path class="st0" d="M276.9,160.3v-37.9c0-2.5-0.4-4.1-1.3-4.9c-0.5-0.5-1.2-0.7-2.1-0.7h-1.5v-2.9h39.8v12H309l-0.7-1.7
	c-2-4.8-5.2-6.7-11.7-6.7h-10.2v19.9h6.6c4.9-0.1,7.8-1.3,9-3.8l0.5-1h2.9v13.9h-2.9l-0.5-1.2c-1.3-2.9-4.4-4.3-10-4.3h-5.5v19.4
	c0,2.5,0.4,4.1,1.2,4.9c0.5,0.5,1.2,0.7,2.1,0.7h1.5v2.9h-19.2V166h1.3c1,0,1.8-0.2,2.3-0.7C276.5,164.5,276.9,162.9,276.9,160.3"/>
<path class="st0" d="M320.2,147.3c-0.1,2.7,0.2,5.3,0.8,7.6c0.7,2.7,2,5,3.5,6.6c1.8,1.8,4.4,2.8,7,2.8c0.9,0,1.7-0.1,2.5-0.4
	c3.1-0.9,5.9-3.5,7.5-6.8l0.5-1.1l1.6,0.8c0.1,0,0.2,0.1,0.2,0.1c0,0,0,0,0.1,0l0,0c0.1,0,0.1,0,0.1,0.1c0.1,0,0.1,0.1,0.2,0.1
	l0.9,0.5l-0.4,1c-1.8,4.7-5.6,8.6-9.9,10.1c-1.6,0.5-3.2,0.8-4.9,0.8c-1.9,0-3.9-0.3-5.9-1c-3.7-1.3-6.9-3.5-9.1-6.5
	c-2.9-3.9-4.3-9.4-3.7-14.7c0.4-4.1,1.9-8,4.2-10.9c3.1-4,7.9-6.5,12.9-6.7c0.2,0,0.4,0,0.6,0c4.1,0,8.1,1.6,11.1,4.4
	c3.2,3.1,5.1,7.6,5.1,12v1.2H320.2z M320.5,143.6h16.4c0-2.7-1-5.3-2.5-7.1c-1.4-1.6-3.4-2.6-5.4-2.6c-0.4,0-0.8,0-1.2,0.1
	c-1.8,0.4-3.4,1.6-4.7,3.4C321.7,139.4,320.9,141.5,320.5,143.6"/>
<path class="st0" d="M363,130.4l0,4.7c2.8-2.7,7.2-5.2,11.3-5.3l0,0c0.5,0,1.1,0,1.7,0.2c1,0.3,1.9,0.8,2.6,1.4
	c0.6,0.6,1,1.5,1.1,2.5c0.1,1.1-0.3,2.2-0.9,3.1c-0.7,1-1.7,1.5-2.8,1.5c-0.1,0-0.2,0-0.3,0c-1.1-0.1-2.1-0.7-3-1.2l0,0
	c-0.4-0.3-0.8-0.5-1.2-0.6c-0.8-0.3-1.6-0.5-2.3-0.5c-0.6,0-1.2,0.1-1.6,0.4c-1.2,0.6-2.7,1.9-4.5,3.9c0,8.3,0,19.9,0,19.9
	c0,2.6,0.4,4.2,1.1,5c0.4,0.5,1,0.7,1.7,0.7h1.4v2.9H350V166h1.2h0.1c0.8,0,1.3-0.2,1.8-0.6c0.7-0.8,1.1-2.2,1.1-4.4
	c0-0.4,0-20.1,0-20.2c0-2.5-0.4-4.1-1.1-5c-0.5-0.5-1.1-0.6-1.9-0.6h0h-1.3v-2.9l10.7-1.9H363z"/>
<path class="st0" d="M395.7,130.4l0,4.4c3.1-3,7.2-4.8,11-5c0.2,0,0.4,0,0.5,0c3.1,0,5.8,1.2,7.9,3.3c1.9,1.9,3,4.9,3.2,8.3l0,0
	l0,6.9c0,5.3,0,11.9,0,11.9c0,2.5,0.4,4.2,1.1,5c0.1,0.1,0.2,0.2,0.3,0.3c0.3,0.2,0.6,0.3,1.1,0.3c0.1,0,0.4,0,0.6,0
	c0,0,0.1,0,0.1,0h0.9v2.9h-17.2V166h0.9c0.3,0,0.6,0,1,0c0.5,0,0.9-0.3,1.2-0.6c0.7-0.8,1.1-2.5,1.1-5v-0.6c0-11.4,0-17.7,0-18.2
	c-0.1-4.4-1.7-6.7-4.7-6.7c-5,0-8.3,4.5-9.1,5.7l0,19.8c0,2.5,0.4,4.2,1.1,5c0.4,0.4,1,0.7,1.7,0.7h1.4v2.9h-17.2V166h1.5
	c0.7,0,1.3-0.2,1.7-0.7c0.7-0.8,1.1-2.5,1.1-5v-18.9c0.1-3-0.3-4.9-1.1-5.8c-0.5-0.5-1-0.6-1.9-0.6h-0.1l-1.3,0v-2.9l10.9-1.8H395.7
	z"/>
<path class="st0" d="M444.4,168.9h-15.7V166h1.4c2.5,0,4.3-1.7,5.8-5.6l17.2-46.5h4.4l0.3,0.7l19.9,45.8c1.5,3.2,3,4.9,5,5.4l0,0
	c0.1,0,0.2,0,0.3,0.1c0.2,0,0.4,0.1,0.6,0.1c0.3,0,0.5,0,0.6,0h0.8v2.9H464V166h1c0.9,0,1.3,0,1.4,0c0.8-0.1,1.3-0.3,1.6-0.8
	c0.5-0.7,0.4-1.9-0.3-3.7l-5.4-12.9h-17.8l-4.1,11.3c-0.8,2.5-0.9,4.2-0.2,5.1c0.3,0.4,0.9,0.9,2.8,0.9h1.5V168.9z M445.8,145.1h15
	l-8.1-19.1L445.8,145.1z"/>
<path class="st0" d="M492.3,160.3v-37.9c0-2.5-0.4-4.1-1.3-4.9c-0.5-0.5-1.2-0.7-2.1-0.7h-1.5v-2.9h19.2v2.9h-1.5
	c-0.9,0-1.6,0.2-2.1,0.7c-0.8,0.8-1.2,2.4-1.2,4.9v37.9c0,2.5,0.4,4.1,1.2,4.9c0.5,0.5,1.2,0.7,2.1,0.7h1.5v2.9h-19.2V166h1.3
	c1,0,1.8-0.2,2.3-0.7C491.9,164.5,492.3,162.9,492.3,160.3"/>
<g>
	<path class="st0" d="M167.8,54.6c-43.5,0-78.8,35.3-78.8,78.8s35.3,78.8,78.8,78.8s78.8-35.3,78.8-78.8S211.3,54.6,167.8,54.6z
		 M104.6,174c-4.7-8.9-5.5-17.3-5.5-17.3s20.2,24.8,23.3,34.7C122.4,191.3,109.4,182.9,104.6,174z M238.3,152.5
		c-0.2,4-4.6,11.3-4.6,11.3c-12.2-7.5-21.8-45.2-21.8-45.2c-3.8-0.1-8-0.2-12.5-0.2c-1,0-1.5,1.1-0.8,1.8c0.1,0.1,0.3,0.3,0.4,0.4
		c5.4,5.1,14.6,23.8,16.4,30.1c1.7,6.3,11.2,22.9,11.2,22.9s-4.2,0.3-16.2-8c-11.9-8.3-21.3-39.6-21.4-43.4
		c-0.1-3.7-2.5-3.8-2.6-3.8c-3.7,0-7.6,0.1-11.5,0.1c-0.7,0-1.3,0.4-1.5,1.1c-0.6,2.2,2.4,4.8,4.4,7.1c2.3,2.6,5.8,6.8,7,10.6
		c1.3,4.1,5.9,14.2,10.9,21.2s10.5,22.4,10.5,22.4s-11.3-4.4-24.3-17.4c-12.9-12.9-20-34.4-20.8-38.7c-0.9-4.3-5.6-5.6-5.7-5.6
		c-4.8,0.3-9.5,0.6-14,1c-0.7,0.1-1,1-0.4,1.4c8.9,6.2,26.3,33.6,29.7,41.7c3.7,8.9,11.2,25.6,11.2,25.6s-13.7-4.8-24.5-15.4
		c-10.9-10.6-20.3-28.9-25.8-40.1c-5.2-10.8-13-10-13.6-10c-3.2,0.7-6,1.5-8.5,2.4c-0.8,0.3-0.9,1.3-0.2,1.8
		c4.9,3.3,19.9,14.4,27.9,31.8c9.6,21,17.9,35.1,22.1,38c0,0-23.7-4.5-41.6-27.3c-12.5-16-18.9-32-21.5-40.2
		c-1.2-3.8-1.4-7.8-0.4-11.7c2.8-10.9,11.2-34,34.2-47c0,0-3.9,23.1-23.3,43.3c-0.2,0.2,0,0.4,0.2,0.4c1.6-0.1,6.2-0.4,12.7-0.8
		c8.8-21.5,26.6-47.2,30-52c0.4-0.6,1.1-1.1,1.9-1.3c3.9-1,12.4-0.5,15.3-0.3c0.5,0,0.8,0.5,0.6,1c-0.8,1.6-2.8,5.5-5.7,12
		c-4,8.8-18.2,30.9-20.9,34.7c-2.8,3.9-1.7,5-1.7,5h0c1.3,0.6,11.1-0.4,13.6-0.4c0.5,0,1-0.4,1.1-0.9c5.7-25.1,24.9-44.8,28.7-48.5
		c0.4-0.4,1-0.7,1.6-0.6c3.2,0.2,7.7,1.7,9.3,2.3c0.4,0.1,0.5,0.5,0.5,0.9c-0.5,1.8-2.1,7.5-5.4,14.1c-4,8.1-15.1,24.1-17.6,27.7
		c-2.6,3.7-1.8,4.8-1.8,4.8l0,0c3.9,0,7.9,0,11.8,0l0,0c0,0,16.8-36.4,26-40.3c0.3-0.1,0.6-0.1,0.9,0.1c1.8,1.2,9,6.2,9.2,8.2
		c0.3,2.1-14.1,24.4-21.9,31.3c0.3,0.7,0.1,0.2,0.3,0.9c4,0.1,8,0.3,12,0.5l0,0c0,0,12.4-22.2,15.7-25.8c0.3-0.3,0.8-0.4,1.2,0
		c1.7,1.6,7.3,7,7.7,10.3c0.4,3.3-8.4,13.1-11.5,16.5c3,0.3,6,0.6,8.8,0.9c0.3,0,0.6-0.1,0.9-0.3c1.3-1.1,5.3-5,5.5-7.7
		c0,0,6.8,10.9,4.6,25.1c0,0-4.5-11.5-13-13.1c-0.1,0-0.3,0-0.4-0.1c-0.5,0-1,0-1.6-0.1C222.8,120.5,238.5,148.5,238.3,152.5z"/>
	<path class="st0" d="M167.8,60.7c40.1,0,72.7,32.6,72.7,72.7s-32.6,72.7-72.7,72.7s-72.7-32.6-72.7-72.7S127.7,60.7,167.8,60.7
		 M167.8,54.6c-43.5,0-78.8,35.3-78.8,78.8s35.3,78.8,78.8,78.8c43.5,0,78.8-35.3,78.8-78.8S211.3,54.6,167.8,54.6L167.8,54.6z"/>
</g>
</svg>
